Simulation
nRows=34
nColumns=15
endheader
time  TH_x TH_y TH_z SC_y  SC_z  SC_x  AC_y  AC_z  AC_x  GH_y  GH_z  GH_yy  EL_x  PS_y
0.0  0.000000  0.000000  0.000000  -26.602616780084364  -3.5106032663652567  -0.3168848731649446  57.647309622451004  7.601110636963776  -3.42434189437068  -46.813726902535  7.341213520810139  105.22496230720817  14.722090246857588  120.000000
0.04078947368421054  0.000000  0.000000  0.000000  -24.857342697795172  -2.3685747476316314  0.2520895185822441  56.7004202472821  7.343198095398187  -3.1401359388589594  -40.4889327559267  7.699281433695395  97.83436918705748  14.65415334139783  120.000000
0.08157894736842108  0.000000  0.000000  0.000000  -23.416592424312043  -1.6346530858672523  0.6711003687227508  55.89765136149196  7.114221418865983  -3.079406890910299  -34.538826985652676  8.273350472914622  90.87308548387819  14.43947447841978  120.000000
0.12236842105263163  0.000000  0.000000  0.000000  -22.243585501285903  -1.1916170119990321  0.9146916961805521  55.21550801076386  6.99257296735133  -3.1375410986102046  -29.570712144778025  9.078232340794852  85.01381585919123  14.392226286961746  120.000000
0.16315789473684217  0.000000  0.000000  0.000000  -21.280659357456127  -0.9077610767788723  0.9663143037354077  54.596301252614666  6.996500385445317  -3.2116951039175556  -25.919569972068235  10.051614157069936  80.53175966180967  14.683093061926995  120.000000
0.2039473684210527  0.000000  0.000000  0.000000  -20.461314035843554  -0.7012838382605107  0.8235520965019005  53.99983852897981  7.145016739727969  -3.238137981700702  -23.6759176302516  11.142773469848214  77.45611851906453  15.45042686219359  120.000000
0.24473684210526325  0.000000  0.000000  0.000000  -19.73925178048086  -0.5186223269981683  0.47820560096349407  53.386933567588244  7.452223025270866  -3.171520850345003  -22.677847459412853  12.305156640341451  75.54691620348196  16.770845874234798  120.000000
0.2855263157894738  0.000000  0.000000  0.000000  -19.112642199887457  -0.32536528550021726  -0.07807163192168093  52.73928179091886  7.931290899126917  -2.9802170537145836  -22.660010489023602  13.51196643378239  74.49316613554426  18.681986596837792  120.000000
0.32631578947368434  0.000000  0.000000  0.000000  -18.59139369451867  -0.09657462211731725  -0.8436087604373291  52.042835710475266  8.584544502847768  -2.6443020195178093  -23.395023670879826  14.754672181099147  74.05461354706048  21.19322748161354  120.000000
0.3671052631578949  0.000000  0.000000  0.000000  -18.18779597653725  0.18191453629059978  -1.8036424821776604  51.29692485621521  9.398211600438628  -2.154063194782474  -24.70058911974564  16.033660120892083  74.07414691510796  24.258610134884446  120.000000
0.4078947368421054  0.000000  0.000000  0.000000  -17.90510586241806  0.5104680225667788  -2.926035231028691  50.51491030015308  10.341265707510978  -1.5098214562542283  -26.438124284479777  17.35548095427802  74.47081906593651  27.771125206555322  120.000000
0.44868421052631596  0.000000  0.000000  0.000000  -17.731416002796824  0.8807914196560291  -4.1625282025826715  49.72194846504634  11.36891860430652  -0.7268068601027752  -28.47149083129747  18.729790606205302  75.18412170307637  31.581043865989884  120.000000
0.4894736842105265  0.000000  0.000000  0.000000  -17.651543692759255  1.282903223049584  -5.4530134332784135  48.94399341367424  12.430450422404805  0.16863077307776328  -30.655774820703826  20.1685813441263  76.14382169611636  35.535789320138015  120.000000
0.530263157894737  0.000000  0.000000  0.000000  -17.65330039088283  1.7125488133012379  -6.731274386367738  48.20198403024592  13.475171110540698  1.1363431458702  -32.842273862868836  21.67975498254658  77.2484458716687  39.51921250501539  120.000000
0.5710526315789476  0.000000  0.000000  0.000000  -17.733774775514387  2.1710719607240647  -7.931785224661133  47.504067929913695  14.456503604509855  2.1305289982549827  -34.901763728900406  23.268236695236567  78.38724077621254  43.47301038717378  120.000000
0.6118421052631582  0.000000  0.000000  0.000000  -17.898424197075574  2.6631213280045567  -8.998874571493394  46.85589321613901  15.337808118996817  3.106479672240032  -36.753659299039604  24.932674707929294  79.4632340858687  47.38841470503554  120.000000
0.6526315789473687  0.000000  0.000000  0.000000  -18.153962651174755  3.1927928737901463  -9.89010399898073  46.26305218052611  16.08987576453123  4.027839054951749  -38.36435504881041  26.66983743988127  80.40801216227926  51.279887250699204  120.000000
0.6934210526315792  0.000000  0.000000  0.000000  -18.500155512366128  3.7590980606245363  -10.578445300611197  45.735662616891545  16.692234968590554  4.864596021779102  -39.73628289602139  28.47512076007236  81.18014354793512  55.16396389424757  120.000000
0.7342105263157898  0.000000  0.000000  0.000000  -18.927173845215286  4.354956225820745  -11.050308668319419  45.28691271674861  17.132378823504457  5.5960936655291444  -40.893212811009555  30.344875708484615  81.76419842853134  59.04620082688295  120.000000
0.7750000000000004  0.000000  0.000000  0.000000  -19.417038997536054  4.969326582323056  -11.30629904630839  44.92968887482792  17.40724419324886  6.210767567940316  -41.86667800306319  32.27234528829443  82.16172553115676  62.91743690729619  120.000000
0.8157894736842108  0.000000  0.000000  0.000000  -19.948417386187803  5.59092537105612  -11.35794734896362  44.669555559839026  17.522922111313928  6.7059821107320765  -42.6871029560579  34.242325750090885  82.38640811714087  66.75389967216113  120.000000
0.8565789473684213  0.000000  0.000000  0.000000  -20.501000105112333  6.211686000397421  -11.222117785996533  44.50272959344034  17.491553240994456  7.083135215341799  -43.37891971046593  36.225629996536824  82.46011488583643  70.517048210869  120.000000
0.8973684210526319  0.000000  0.000000  0.000000  -21.059340751825644  6.827623382702775  -10.916028469938023  44.41660138118281  17.329219135465138  7.347471517025576  -43.958019168755904  38.18107743179316  82.41210328234193  74.15609521964869  120.000000
0.9381578947368425  0.000000  0.000000  0.000000  -21.61128328677723  7.438890516647503  -10.459047663867265  44.3902350092876  17.054841172000586  7.5085785454601535  -44.433914401272965  40.06071921124579  82.27645643380824  77.6153614245222  120.000000
0.978947368421053  0.000000  0.000000  0.000000  -22.146787739864482  8.046815622418999  -9.872494613093886  44.39834294726687  16.689348636459403  7.5780349610406175  -44.81323333406316  41.818913050819866  82.08837678840986  80.84406232457658  120.000000
1.0197368421052635  0.000000  0.000000  0.000000  -22.656806893862672  8.65068950994528  -9.178721471911015  44.41610316720483  16.252748573503794  7.5656909059106825  -45.10490760781209  43.42178635330955  81.88157534675163  83.80527596708542  120.000000
1.060526315789474  0.000000  0.000000  0.000000  -23.133374105404886  9.246839066830784  -8.399482483958058  44.42378536736172  15.762686949863545  7.478270191096604  -45.32264402272169  44.85150936604627  81.6857894124068  86.48051103560661  120.000000
1.1013157894736847  0.000000  0.000000  0.000000  -23.570011680418748  9.828402673399003  -7.555725791819081  44.40909447141651  15.233413811380132  7.320772539490631  -45.484588201681724  46.10702633859192  81.52545477731958  88.86855254757853  120.000000
1.1421052631578952  0.000000  0.000000  0.000000  -23.961653228497152  10.386579844826262  -6.667556510969652  44.36779918130172  14.677262107250998  7.097580972935199  -45.61145867570981  47.19714884273195  81.4175843780481  90.97858227632022  120.000000
1.1828947368421057  0.000000  0.000000  0.000000  -24.304661149497402  10.911748398648232  -5.754375863942498  44.30303158415296  14.10381566840475  6.8151620616810735  -45.723221223151015  48.13688625556591  81.3707481367492  92.82308144694211  120.000000
1.2236842105263164  0.000000  0.000000  0.000000  -24.597264877986284  11.394435189381973  -4.834396170254791  44.224159647691316  13.522136085519382  6.481666494309222  -45.83659518806088  48.941143793801714  81.38481563249253  94.41342299560588  120.000000
1.2644736842105269  0.000000  0.000000  0.000000  -24.839731079185135  11.825773015402062  -3.9244325720046125  44.143813436345695  12.94031609420496  6.10802835511608  -45.963227378274915  49.62415604978839  81.45228698012414  95.75905130335391  120.000000
1.3052631578947373  0.000000  0.000000  0.000000  -25.034658544480877  12.198523910220992  -3.039601694379433  44.075819462886095  12.36725675230442  5.706234773339594  -46.110088258970436  50.19637090207432  81.56024108285317  96.86867733470784  120.000000
1.3460526315789478  0.000000  0.000000  0.000000  -25.186903574767747  12.507586809051498  -2.193072389129998  44.03160030778817  11.811567548833812  5.289605331088644  -46.27911444473839  50.666318925150904  81.69332012393212  97.75269298980564  120.000000
